<svg width="14" height="14" viewBox="0 0 14 14" fill="none" xmlns="http://www.w3.org/2000/svg">
<path d="M6.97266 13.9453C7.92513 13.9453 8.82064 13.763 9.65918 13.3984C10.5023 13.0339 11.2451 12.5303 11.8877 11.8877C12.5303 11.2451 13.0339 10.5046 13.3984 9.66602C13.763 8.82292 13.9453 7.92513 13.9453 6.97266C13.9453 6.02018 13.763 5.12467 13.3984 4.28613C13.0339 3.44303 12.5303 2.7002 11.8877 2.05762C11.2451 1.41504 10.5023 0.911458 9.65918 0.546875C8.81608 0.182292 7.91829 0 6.96582 0C6.01335 0 5.11556 0.182292 4.27246 0.546875C3.43392 0.911458 2.69336 1.41504 2.05078 2.05762C1.41276 2.7002 0.911458 3.44303 0.546875 4.28613C0.182292 5.12467 0 6.02018 0 6.97266C0 7.92513 0.182292 8.82292 0.546875 9.66602C0.911458 10.5046 1.41504 11.2451 2.05762 11.8877C2.7002 12.5303 3.44076 13.0339 4.2793 13.3984C5.1224 13.763 6.02018 13.9453 6.97266 13.9453ZM6.97266 12.7832C6.16602 12.7832 5.41178 12.6328 4.70996 12.332C4.00814 12.0312 3.39062 11.6165 2.85742 11.0879C2.32878 10.5547 1.91406 9.93717 1.61328 9.23535C1.31706 8.53353 1.16895 7.7793 1.16895 6.97266C1.16895 6.16602 1.31706 5.41178 1.61328 4.70996C1.91406 4.00814 2.32878 3.39062 2.85742 2.85742C3.38607 2.32422 4.0013 1.90951 4.70312 1.61328C5.40495 1.3125 6.15918 1.16211 6.96582 1.16211C7.77246 1.16211 8.52669 1.3125 9.22852 1.61328C9.9349 1.90951 10.5524 2.32422 11.0811 2.85742C11.6143 3.39062 12.0312 4.00814 12.332 4.70996C12.6328 5.41178 12.7832 6.16602 12.7832 6.97266C12.7832 7.7793 12.6328 8.53353 12.332 9.23535C12.0358 9.93717 11.6211 10.5547 11.0879 11.0879C10.5547 11.6165 9.93717 12.0312 9.23535 12.332C8.53353 12.6328 7.7793 12.7832 6.97266 12.7832ZM5.77637 10.7939H8.55859C8.69987 10.7939 8.81836 10.7484 8.91406 10.6572C9.00977 10.5661 9.05762 10.4521 9.05762 10.3154C9.05762 10.1787 9.00977 10.0648 8.91406 9.97363C8.81836 9.88249 8.69987 9.83691 8.55859 9.83691H7.71094V6.35742C7.71094 6.17057 7.66536 6.02246 7.57422 5.91309C7.48307 5.79915 7.35091 5.74219 7.17773 5.74219H5.89258C5.7513 5.74219 5.63281 5.78776 5.53711 5.87891C5.44141 5.97005 5.39355 6.08398 5.39355 6.2207C5.39355 6.35742 5.44141 6.47135 5.53711 6.5625C5.63281 6.65365 5.7513 6.69922 5.89258 6.69922H6.62402V9.83691H5.77637C5.63509 9.83691 5.5166 9.88249 5.4209 9.97363C5.3252 10.0648 5.27734 10.1787 5.27734 10.3154C5.27734 10.4521 5.3252 10.5661 5.4209 10.6572C5.5166 10.7484 5.63509 10.7939 5.77637 10.7939ZM6.91113 4.60059C7.16178 4.60059 7.37142 4.514 7.54004 4.34082C7.71322 4.16764 7.7998 3.95801 7.7998 3.71191C7.7998 3.46126 7.71322 3.24935 7.54004 3.07617C7.37142 2.90299 7.16178 2.81641 6.91113 2.81641C6.66504 2.81641 6.4554 2.90299 6.28223 3.07617C6.10905 3.24935 6.02246 3.46126 6.02246 3.71191C6.02246 3.95801 6.10905 4.16764 6.28223 4.34082C6.4554 4.514 6.66504 4.60059 6.91113 4.60059Z" fill="#1F3D4D"/>
</svg>
