<svg width="16" height="16" viewBox="0 0 16 16" fill="none" xmlns="http://www.w3.org/2000/svg">
<path d="M14.9478 13.55L12.1353 6.7375C12.0834 6.61169 11.9953 6.50413 11.8821 6.42845C11.769 6.35277 11.636 6.31237 11.4998 6.31237C11.3637 6.31237 11.2307 6.35277 11.1176 6.42845C11.0044 6.50413 10.9163 6.61169 10.8644 6.7375L8.05187 13.55C8.0169 13.6335 7.99878 13.7232 7.99855 13.8137C7.99832 13.9043 8.01599 13.994 8.05055 14.0778C8.0851 14.1615 8.13585 14.2375 8.19989 14.3016C8.26393 14.3656 8.33999 14.4164 8.4237 14.451C8.50742 14.4855 8.59714 14.5032 8.68771 14.503C8.77827 14.5028 8.86791 14.4846 8.95146 14.4497C9.035 14.4147 9.11082 14.3636 9.17455 14.2992C9.23828 14.2349 9.28866 14.1586 9.32281 14.0747L9.89562 12.6875H13.1041L13.6769 14.0747C13.7288 14.2006 13.8169 14.3082 13.9301 14.3839C14.0432 14.4596 14.1763 14.5 14.3125 14.5C14.4255 14.4999 14.5367 14.472 14.6363 14.4188C14.7359 14.3655 14.8209 14.2885 14.8837 14.1946C14.9464 14.1006 14.9851 13.9927 14.9962 13.8803C15.0074 13.7678 14.9906 13.6544 14.9475 13.55H14.9478ZM10.4634 11.3125L11.5 8.80156L12.5366 11.3125H10.4634Z" fill="#1F3D4D"/>
<path d="M8.37 10.7163C8.47681 10.5687 8.52071 10.3848 8.49205 10.205C8.4634 10.0251 8.36455 9.86393 8.21719 9.75688C8.21094 9.75219 7.74844 9.40906 7.07688 8.67156C8.31594 6.99406 9.01781 5.08562 9.30406 4.1875H10.3125C10.4948 4.1875 10.6697 4.11507 10.7986 3.98614C10.9276 3.8572 11 3.68234 11 3.5C11 3.31766 10.9276 3.1428 10.7986 3.01386C10.6697 2.88493 10.4948 2.8125 10.3125 2.8125H6.6875V2.1875C6.6875 2.00516 6.61507 1.8303 6.48614 1.70136C6.3572 1.57243 6.18234 1.5 6 1.5C5.81766 1.5 5.6428 1.57243 5.51386 1.70136C5.38493 1.8303 5.3125 2.00516 5.3125 2.1875V2.8125H1.6875C1.50516 2.8125 1.3303 2.88493 1.20136 3.01386C1.07243 3.1428 1 3.31766 1 3.5C1 3.68234 1.07243 3.8572 1.20136 3.98614C1.3303 4.11507 1.50516 4.1875 1.6875 4.1875H7.85156C7.55406 5.02969 7.00625 6.35938 6.17063 7.57375C5.18906 6.27125 4.82437 5.42844 4.82156 5.42156C4.7497 5.2555 4.61527 5.12445 4.44743 5.05686C4.27958 4.98926 4.09185 4.99057 3.92496 5.06048C3.75806 5.1304 3.62546 5.26329 3.55591 5.43034C3.48636 5.59738 3.48547 5.78511 3.55344 5.95281C3.57156 5.99594 4.00813 7.0225 5.20531 8.57563C5.23406 8.61281 5.2625 8.64906 5.29094 8.68531C4.06469 10.0712 2.86156 10.9309 2.35812 11.2084C2.19804 11.2958 2.0792 11.4431 2.02775 11.618C1.97629 11.793 1.99644 11.9812 2.08375 12.1412C2.17106 12.3013 2.3184 12.4202 2.49333 12.4716C2.66827 12.5231 2.85648 12.5029 3.01656 12.4156C3.08406 12.3787 4.53531 11.5753 6.1925 9.74094C6.89625 10.4934 7.38 10.8484 7.40906 10.8691C7.48219 10.9222 7.56506 10.9604 7.65296 10.9814C7.74085 11.0025 7.83203 11.006 7.92128 10.9917C8.01053 10.9775 8.0961 10.9458 8.1731 10.8985C8.2501 10.8512 8.31701 10.7891 8.37 10.7159V10.7163Z" fill="#1F3D4D"/>
</svg>
