<svg width="20" height="17" viewBox="0 0 20 17" fill="none" xmlns="http://www.w3.org/2000/svg">
<path d="M4.8125 11.5166H6.4873C6.68783 11.5166 6.84961 11.4551 6.97266 11.332C7.0957 11.209 7.15723 11.0518 7.15723 10.8604V9.5957C7.15723 9.39974 7.0957 9.24251 6.97266 9.12402C6.84961 9.00098 6.68783 8.93945 6.4873 8.93945H4.8125C4.61198 8.93945 4.4502 9.00098 4.32715 9.12402C4.2041 9.24251 4.14258 9.39974 4.14258 9.5957V10.8604C4.14258 11.0518 4.2041 11.209 4.32715 11.332C4.4502 11.4551 4.61198 11.5166 4.8125 11.5166ZM2.29688 6.50586H17.2607V4.9541H2.29688V6.50586ZM3.88965 13.9092H15.6611C16.3766 13.9092 16.9121 13.7314 17.2676 13.376C17.6276 13.0251 17.8076 12.4987 17.8076 11.7969V4.35254C17.8076 3.65072 17.6276 3.12207 17.2676 2.7666C16.9121 2.41113 16.3766 2.2334 15.6611 2.2334H3.88965C3.17415 2.2334 2.63639 2.41113 2.27637 2.7666C1.9209 3.11751 1.74316 3.64616 1.74316 4.35254V11.7969C1.74316 12.4987 1.9209 13.0251 2.27637 13.376C2.63639 13.7314 3.17415 13.9092 3.88965 13.9092ZM3.90332 12.8086C3.56152 12.8086 3.29948 12.7197 3.11719 12.542C2.9349 12.3597 2.84375 12.0908 2.84375 11.7354V4.41406C2.84375 4.05859 2.9349 3.78971 3.11719 3.60742C3.29948 3.42513 3.56152 3.33398 3.90332 3.33398H15.6475C15.9847 3.33398 16.2445 3.42513 16.4268 3.60742C16.6136 3.78971 16.707 4.05859 16.707 4.41406V11.7354C16.707 12.0908 16.6136 12.3597 16.4268 12.542C16.2445 12.7197 15.9847 12.8086 15.6475 12.8086H3.90332Z" fill="#1F3D4D"/>
</svg>
