<svg width="12" height="15" viewBox="0 0 12 15" fill="none" xmlns="http://www.w3.org/2000/svg">
<path d="M3.1582 3.95801H8.34668C8.46517 3.95801 8.56315 3.91699 8.64062 3.83496C8.72266 3.75293 8.76367 3.65267 8.76367 3.53418C8.76367 3.41569 8.72266 3.31771 8.64062 3.24023C8.56315 3.1582 8.46517 3.11719 8.34668 3.11719H3.1582C3.03516 3.11719 2.93262 3.1582 2.85059 3.24023C2.77311 3.31771 2.73438 3.41569 2.73438 3.53418C2.73438 3.65267 2.77311 3.75293 2.85059 3.83496C2.93262 3.91699 3.03516 3.95801 3.1582 3.95801ZM3.1582 6.34375H8.34668C8.46517 6.34375 8.56315 6.30273 8.64062 6.2207C8.72266 6.13867 8.76367 6.03841 8.76367 5.91992C8.76367 5.80143 8.72266 5.70345 8.64062 5.62598C8.56315 5.54395 8.46517 5.50293 8.34668 5.50293H3.1582C3.03516 5.50293 2.93262 5.54395 2.85059 5.62598C2.77311 5.70345 2.73438 5.80143 2.73438 5.91992C2.73438 6.03841 2.77311 6.13867 2.85059 6.2207C2.93262 6.30273 3.03516 6.34375 3.1582 6.34375ZM3.1582 8.72949H5.6123C5.73535 8.72949 5.83561 8.69075 5.91309 8.61328C5.99512 8.53125 6.03613 8.43327 6.03613 8.31934C6.03613 8.19629 5.99512 8.09375 5.91309 8.01172C5.83561 7.92969 5.73535 7.88867 5.6123 7.88867H3.1582C3.03516 7.88867 2.93262 7.92969 2.85059 8.01172C2.77311 8.09375 2.73438 8.19629 2.73438 8.31934C2.73438 8.43327 2.77311 8.53125 2.85059 8.61328C2.93262 8.69075 3.03516 8.72949 3.1582 8.72949ZM0 12.5166C0 13.2321 0.175456 13.7676 0.526367 14.123C0.881836 14.4785 1.41276 14.6562 2.11914 14.6562H9.37891C10.0853 14.6562 10.6139 14.4785 10.9648 14.123C11.3203 13.7676 11.498 13.2321 11.498 12.5166V2.14648C11.498 1.43555 11.3203 0.900065 10.9648 0.540039C10.6139 0.180013 10.0853 0 9.37891 0H2.11914C1.41276 0 0.881836 0.180013 0.526367 0.540039C0.175456 0.900065 0 1.43555 0 2.14648V12.5166ZM1.10059 12.4961V2.16699C1.10059 1.8252 1.18945 1.56315 1.36719 1.38086C1.54948 1.19401 1.81836 1.10059 2.17383 1.10059H9.32422C9.67969 1.10059 9.94629 1.19401 10.124 1.38086C10.3063 1.56315 10.3975 1.8252 10.3975 2.16699V12.4961C10.3975 12.8379 10.3063 13.0999 10.124 13.2822C9.94629 13.4645 9.67969 13.5557 9.32422 13.5557H2.17383C1.81836 13.5557 1.54948 13.4645 1.36719 13.2822C1.18945 13.0999 1.10059 12.8379 1.10059 12.4961Z" fill="#1F3D4D"/>
</svg>
