<svg width="16" height="15" viewBox="0 0 16 15" fill="none" xmlns="http://www.w3.org/2000/svg">
<path d="M2.11914 14.6562H9.37891C10.0853 14.6562 10.6139 14.4785 10.9648 14.123C11.3203 13.7676 11.498 13.2321 11.498 12.5166V9.34473H10.3975V12.4961C10.3975 12.8379 10.3063 13.0999 10.124 13.2822C9.94629 13.4645 9.67969 13.5557 9.32422 13.5557H2.17383C1.81836 13.5557 1.54948 13.4645 1.36719 13.2822C1.18945 13.0999 1.10059 12.8379 1.10059 12.4961V2.16699C1.10059 1.8252 1.18945 1.56315 1.36719 1.38086C1.54948 1.19401 1.81836 1.10059 2.17383 1.10059H9.32422C9.67969 1.10059 9.94629 1.19401 10.124 1.38086C10.3063 1.56315 10.3975 1.8252 10.3975 2.16699V5.31152H11.498V2.14648C11.498 1.43555 11.3203 0.900065 10.9648 0.540039C10.6139 0.180013 10.0853 0 9.37891 0H2.11914C1.41276 0 0.881836 0.180013 0.526367 0.540039C0.175456 0.900065 0 1.43555 0 2.14648V12.5166C0 13.2321 0.175456 13.7676 0.526367 14.123C0.881836 14.4785 1.41276 14.6562 2.11914 14.6562ZM6.32324 7.86816H13.3438L14.3691 7.82715L13.8838 8.29199L12.7832 9.32422C12.6738 9.41992 12.6191 9.54297 12.6191 9.69336C12.6191 9.83464 12.6624 9.95312 12.749 10.0488C12.8402 10.1445 12.9564 10.1924 13.0977 10.1924C13.2298 10.1924 13.3506 10.14 13.46 10.0352L15.6885 7.72461C15.7568 7.65625 15.8024 7.59017 15.8252 7.52637C15.8525 7.46256 15.8662 7.39648 15.8662 7.32812C15.8662 7.25977 15.8525 7.19369 15.8252 7.12988C15.8024 7.06608 15.7568 7 15.6885 6.93164L13.46 4.62109C13.3506 4.51172 13.2298 4.45703 13.0977 4.45703C12.9564 4.45703 12.8402 4.50488 12.749 4.60059C12.6624 4.69173 12.6191 4.80794 12.6191 4.94922C12.6191 5.10417 12.6738 5.22949 12.7832 5.3252L13.8838 6.36426L14.3691 6.8291L13.3438 6.78125H6.32324C6.18197 6.78125 6.05892 6.83594 5.9541 6.94531C5.84928 7.05469 5.79688 7.18229 5.79688 7.32812C5.79688 7.47396 5.84928 7.60156 5.9541 7.71094C6.05892 7.81576 6.18197 7.86816 6.32324 7.86816Z" fill="#1F3D4D"/>
</svg>
