<svg width="16" height="15" viewBox="0 0 16 15" fill="none" xmlns="http://www.w3.org/2000/svg">
<path d="M7.7041 12.6602H13.5967C14.7132 12.6602 15.2715 12.2956 15.2715 11.5664C15.2715 11.1198 15.1348 10.6436 14.8613 10.1377C14.5924 9.63184 14.1982 9.1556 13.6787 8.70898C13.1637 8.25781 12.5371 7.89095 11.7988 7.6084C11.0605 7.32585 10.2288 7.18457 9.30371 7.18457C8.68392 7.18457 8.10514 7.25293 7.56738 7.38965C7.03418 7.52181 6.54883 7.7041 6.11133 7.93652C6.2526 8.05046 6.38704 8.1735 6.51465 8.30566C6.64681 8.43327 6.76986 8.57227 6.88379 8.72266C7.21647 8.56771 7.58561 8.44466 7.99121 8.35352C8.39681 8.26237 8.83431 8.2168 9.30371 8.2168C10.0876 8.2168 10.7803 8.33073 11.3818 8.55859C11.988 8.7819 12.4984 9.06445 12.9131 9.40625C13.3278 9.74805 13.64 10.1035 13.8496 10.4727C14.0638 10.8372 14.1709 11.1585 14.1709 11.4365C14.1709 11.5094 14.1504 11.5596 14.1094 11.5869C14.0729 11.6143 14.0114 11.6279 13.9248 11.6279H7.875C7.87044 11.8057 7.85449 11.9811 7.82715 12.1543C7.7998 12.3275 7.75879 12.4961 7.7041 12.6602ZM9.30371 6.33691C9.84603 6.33691 10.3405 6.19108 10.7871 5.89941C11.2337 5.60775 11.5892 5.22038 11.8535 4.7373C12.1224 4.24967 12.2568 3.71191 12.2568 3.12402C12.2568 2.54069 12.1247 2.01432 11.8604 1.54492C11.596 1.07096 11.2406 0.694987 10.7939 0.416992C10.3473 0.138997 9.85059 0 9.30371 0C8.76595 0 8.27148 0.141276 7.82031 0.423828C7.3737 0.70638 7.01595 1.08464 6.74707 1.55859C6.48275 2.03255 6.35059 2.55892 6.35059 3.1377C6.35514 3.72103 6.48958 4.25651 6.75391 4.74414C7.02279 5.22721 7.38053 5.61458 7.82715 5.90625C8.27376 6.19336 8.76595 6.33691 9.30371 6.33691ZM9.30371 5.30469C8.97103 5.30469 8.66341 5.20898 8.38086 5.01758C8.10286 4.82161 7.87728 4.55957 7.7041 4.23145C7.53548 3.90332 7.45117 3.53874 7.45117 3.1377C7.45117 2.74121 7.53548 2.38574 7.7041 2.07129C7.87272 1.75228 8.09603 1.49935 8.37402 1.3125C8.65658 1.12565 8.96647 1.03223 9.30371 1.03223C9.64551 1.03223 9.9554 1.12337 10.2334 1.30566C10.516 1.48796 10.7393 1.73861 10.9033 2.05762C11.0719 2.37207 11.1562 2.72754 11.1562 3.12402C11.1562 3.52507 11.0719 3.89193 10.9033 4.22461C10.7347 4.55273 10.5091 4.81478 10.2266 5.01074C9.94857 5.20671 9.64095 5.30469 9.30371 5.30469ZM3.47266 14.9365C3.94206 14.9365 4.38639 14.8454 4.80566 14.6631C5.22494 14.4808 5.59408 14.2301 5.91309 13.9111C6.23665 13.5921 6.48958 13.223 6.67188 12.8037C6.85417 12.3844 6.94531 11.9378 6.94531 11.4639C6.94531 10.9854 6.85417 10.5365 6.67188 10.1172C6.49414 9.69792 6.24577 9.32878 5.92676 9.00977C5.60775 8.69075 5.23861 8.44238 4.81934 8.26465C4.40006 8.08236 3.95117 7.99121 3.47266 7.99121C2.9987 7.99121 2.55208 8.08236 2.13281 8.26465C1.71354 8.44238 1.3444 8.69303 1.02539 9.0166C0.70638 9.33561 0.455729 9.70475 0.273438 10.124C0.0911458 10.5387 0 10.9854 0 11.4639C0 11.9424 0.0911458 12.3913 0.273438 12.8105C0.455729 13.2298 0.70638 13.599 1.02539 13.918C1.3444 14.237 1.71354 14.4854 2.13281 14.6631C2.55208 14.8454 2.9987 14.9365 3.47266 14.9365ZM3.47266 13.6377C3.34505 13.6377 3.24251 13.599 3.16504 13.5215C3.09212 13.444 3.05566 13.3438 3.05566 13.2207V11.8809H1.71582C1.59277 11.8809 1.49251 11.8421 1.41504 11.7646C1.33757 11.6917 1.29883 11.5915 1.29883 11.4639C1.29883 11.3363 1.33757 11.2337 1.41504 11.1562C1.49251 11.0833 1.59277 11.0469 1.71582 11.0469H3.05566V9.70703C3.05566 9.58398 3.09212 9.48372 3.16504 9.40625C3.24251 9.32878 3.34505 9.29004 3.47266 9.29004C3.60026 9.29004 3.70052 9.32878 3.77344 9.40625C3.85091 9.48372 3.88965 9.58398 3.88965 9.70703V11.0469H5.22949C5.35254 11.0469 5.4528 11.0833 5.53027 11.1562C5.60775 11.2337 5.64648 11.3363 5.64648 11.4639C5.64648 11.5915 5.60775 11.6917 5.53027 11.7646C5.4528 11.8421 5.35254 11.8809 5.22949 11.8809H3.88965V13.2207C3.88965 13.3438 3.85091 13.444 3.77344 13.5215C3.70052 13.599 3.60026 13.6377 3.47266 13.6377Z" fill="#1F3D4D"/>
</svg>
