<svg width="13" height="15" viewBox="0 0 13 15" fill="none" xmlns="http://www.w3.org/2000/svg">
<path d="M0 10.8691C0 11.1198 0.0911458 11.3203 0.273438 11.4707C0.455729 11.6211 0.708659 11.6963 1.03223 11.6963H3.91699C3.93522 12.1383 4.05371 12.5462 4.27246 12.9199C4.49577 13.2936 4.79427 13.5944 5.16797 13.8223C5.54167 14.0547 5.96777 14.1709 6.44629 14.1709C6.92936 14.1709 7.35775 14.0547 7.73145 13.8223C8.10514 13.5944 8.40137 13.2936 8.62012 12.9199C8.84342 12.5462 8.96419 12.1383 8.98242 11.6963H11.8672C12.1908 11.6963 12.4437 11.6211 12.626 11.4707C12.8083 11.3203 12.8994 11.1198 12.8994 10.8691C12.8994 10.6413 12.8333 10.4202 12.7012 10.2061C12.569 9.99186 12.4027 9.78223 12.2021 9.57715C12.0062 9.37207 11.8102 9.16699 11.6143 8.96191C11.4639 8.80697 11.3454 8.60417 11.2588 8.35352C11.1768 8.10286 11.1152 7.83626 11.0742 7.55371C11.0332 7.27116 11.0036 6.99772 10.9854 6.7334C10.9808 6.51009 10.9717 6.29362 10.958 6.08398C10.9443 5.86979 10.9261 5.66244 10.9033 5.46191C10.7438 5.51204 10.5638 5.55306 10.3633 5.58496C10.1673 5.6123 9.9873 5.62142 9.82324 5.6123C9.84147 5.79004 9.85742 5.97917 9.87109 6.17969C9.88477 6.38021 9.89388 6.5944 9.89844 6.82227C9.91211 7.15495 9.93717 7.46029 9.97363 7.73828C10.0146 8.01628 10.0648 8.26921 10.124 8.49707C10.1878 8.72493 10.2653 8.93001 10.3564 9.1123C10.4476 9.29004 10.5547 9.44727 10.6777 9.58398C10.8008 9.71615 10.9215 9.84603 11.04 9.97363C11.1631 10.1012 11.2702 10.2197 11.3613 10.3291C11.457 10.4339 11.5254 10.5182 11.5664 10.582V10.6641H1.32617V10.582C1.36719 10.5182 1.43555 10.4339 1.53125 10.3291C1.62695 10.2197 1.73405 10.1012 1.85254 9.97363C1.97559 9.84603 2.09635 9.71615 2.21484 9.58398C2.33789 9.44727 2.44499 9.29004 2.53613 9.1123C2.62728 8.93001 2.70475 8.72493 2.76855 8.49707C2.83236 8.26921 2.88249 8.01628 2.91895 7.73828C2.9554 7.46029 2.98275 7.15495 3.00098 6.82227C3.01921 5.82878 3.12174 5.04036 3.30859 4.45703C3.49544 3.8737 3.74382 3.44076 4.05371 3.1582C4.36816 2.87109 4.72135 2.67285 5.11328 2.56348C5.19987 2.54525 5.26595 2.51335 5.31152 2.46777C5.3571 2.41764 5.38216 2.34928 5.38672 2.2627C5.40039 1.90723 5.50065 1.61784 5.6875 1.39453C5.87891 1.16667 6.13184 1.05273 6.44629 1.05273C6.57845 1.05273 6.6901 1.07096 6.78125 1.10742C6.84505 0.947917 6.92025 0.795247 7.00684 0.649414C7.09342 0.503581 7.19141 0.366862 7.30078 0.239258C7.03646 0.111654 6.75163 0.0478516 6.44629 0.0478516C5.94499 0.0478516 5.51888 0.202799 5.16797 0.512695C4.82161 0.822591 4.59147 1.20085 4.47754 1.64746C3.87142 1.86621 3.38151 2.20345 3.00781 2.65918C2.63867 3.11491 2.36751 3.68457 2.19434 4.36816C2.02116 5.0472 1.92773 5.83561 1.91406 6.7334C1.89583 6.99772 1.86621 7.27116 1.8252 7.55371C1.78418 7.83626 1.72038 8.10286 1.63379 8.35352C1.55176 8.60417 1.43555 8.80697 1.28516 8.96191C1.08919 9.16699 0.890951 9.37207 0.69043 9.57715C0.494466 9.78223 0.330404 9.99186 0.198242 10.2061C0.0660807 10.4202 0 10.6413 0 10.8691ZM4.9834 11.6963H7.91602C7.88867 12.1611 7.74056 12.528 7.47168 12.7969C7.2028 13.0703 6.861 13.207 6.44629 13.207C6.03613 13.207 5.69434 13.0703 5.4209 12.7969C5.15202 12.528 5.00619 12.1611 4.9834 11.6963ZM9.81641 4.74414C10.2448 4.74414 10.639 4.63704 10.999 4.42285C11.359 4.20866 11.6462 3.92155 11.8604 3.56152C12.0745 3.2015 12.1816 2.80501 12.1816 2.37207C12.1816 1.93913 12.0745 1.54264 11.8604 1.18262C11.6462 0.822591 11.359 0.535482 10.999 0.321289C10.639 0.107096 10.2448 0 9.81641 0C9.37891 0 8.98014 0.107096 8.62012 0.321289C8.26465 0.535482 7.97982 0.822591 7.76562 1.18262C7.55143 1.54264 7.44434 1.93913 7.44434 2.37207C7.44434 2.80501 7.55143 3.2015 7.76562 3.56152C7.97982 3.92155 8.26465 4.20866 8.62012 4.42285C8.98014 4.63704 9.37891 4.74414 9.81641 4.74414Z" fill="#1F3D4D"/>
</svg>
